<?xml version="1.0" standalone="no"?>
<!DOCTYPE svg PUBLIC "-//W3C//DTD SVG 20010904//EN"
 "http://www.w3.org/TR/2001/REC-SVG-20010904/DTD/svg10.dtd">
<svg version="1.0" xmlns="http://www.w3.org/2000/svg"
 width="500.000000pt" height="500.000000pt" viewBox="0 0 500.000000 500.000000"
 preserveAspectRatio="xMidYMid meet">
<metadata>
Created by potrace 1.14, written by Peter Selinger 2001-2017
</metadata>
<g transform="translate(0.000000,500.000000) scale(0.100000,-0.100000)"
fill="#000000" stroke="none">
<path d="M2477 4964 c-1 -1 -56 -4 -122 -8 -509 -26 -996 -214 -1410 -544
-186 -148 -419 -416 -549 -630 -134 -221 -252 -510 -296 -722 -19 -88 -41
-216 -45 -255 -2 -22 -7 -67 -10 -100 -8 -71 -8 -303 0 -395 16 -190 58 -403
117 -580 33 -102 105 -276 137 -333 11 -19 33 -61 50 -93 150 -288 474 -641
774 -842 339 -228 742 -373 1142 -410 94 -9 462 -7 505 2 14 3 47 8 75 12 27
3 52 7 55 9 3 2 26 6 50 10 54 7 235 51 270 65 14 6 34 12 45 14 11 2 61 20
110 39 406 156 767 421 1042 764 225 281 384 600 467 938 23 92 30 126 42 210
3 17 7 39 9 50 24 112 24 594 0 668 -2 6 -6 30 -9 52 -24 198 -116 489 -220
700 -70 140 -186 330 -245 401 -14 17 -35 42 -46 56 -83 107 -258 283 -371
374 -193 154 -463 309 -675 388 -97 36 -245 82 -289 90 -14 2 -45 9 -70 15
-66 15 -99 20 -160 27 -30 3 -57 7 -60 9 -8 5 -308 23 -313 19z m223 -158 c73
-6 204 -25 260 -38 25 -5 53 -11 63 -13 344 -71 743 -281 1026 -540 371 -339
627 -788 717 -1260 4 -22 9 -47 10 -55 2 -8 6 -40 10 -70 3 -30 9 -82 14 -115
9 -63 5 -421 -5 -490 -77 -544 -296 -988 -669 -1360 -266 -264 -564 -447 -916
-562 -74 -24 -247 -67 -305 -77 -16 -2 -46 -7 -65 -10 -97 -17 -190 -23 -345
-24 -181 0 -290 10 -447 43 -263 53 -481 136 -720 273 -230 132 -491 360 -659
578 -272 352 -428 749 -476 1214 -6 64 -6 344 1 415 14 157 55 352 107 509 48
147 57 168 139 331 219 432 569 781 1011 1008 171 87 373 161 524 192 164 33
258 47 355 52 63 3 116 7 118 8 3 3 186 -4 252 -9z"/>
<path d="M2415 4771 c-83 -37 -132 -127 -122 -220 7 -62 20 -92 57 -134 115
-132 335 -54 356 125 16 136 -77 248 -206 248 -25 0 -63 -9 -85 -19z"/>
<path d="M3257 4374 c-1 -1 -56 -5 -122 -8 -66 -4 -178 -10 -250 -14 -71 -3
-361 -6 -642 -6 -282 1 -513 -2 -514 -5 0 -3 -2 -15 -4 -26 -5 -24 -16 -101
-20 -135 -4 -38 -16 -122 -21 -153 -3 -16 2 -37 11 -50 15 -21 23 -22 148 -23
159 0 193 -7 230 -42 63 -60 61 -6 61 -1417 0 -1352 0 -1352 -45 -1452 -41
-91 -149 -160 -313 -202 -44 -12 -80 -22 -82 -23 -1 -2 -5 -30 -8 -63 -23
-228 -26 -321 -11 -318 6 0 42 4 80 7 39 4 93 9 120 12 54 7 67 8 255 20 129
9 586 10 1000 3 l234 -4 7 40 c4 22 9 58 12 80 4 22 13 89 22 148 16 102 15
110 -1 128 -9 10 -20 16 -25 13 -20 -12 -286 -16 -327 -5 -72 20 -111 64 -133
151 -17 70 -18 110 -13 600 2 289 6 572 8 630 13 383 19 535 32 800 4 80 8
168 9 195 17 369 22 437 36 500 29 126 84 173 251 210 41 9 82 17 92 19 29 4
34 19 40 111 3 50 8 128 11 175 3 47 8 91 10 98 4 10 -11 12 -66 10 -39 -1
-71 -3 -72 -4z"/>
</g>
</svg>
